# xmcd
#
# Track frame offsets: 
#        150
#        18702
#        31869
#        48018
#        61616
#        79949
#        97275
#        115740
#        132318
#        152498
#        167620
#        182958
#
# Disc length: 2625 seconds
#
# Revision: 19
# Processed by: cddbd v1.5.2PL0 Copyright (c) Steve Scherf et al.
# Submitted via: ExactAudioCopy v0.90b4
#
DISCID=930a3f0c
DTITLE=Kiss - Monster
DYEAR=2012
DGENRE=Hard Rock
TTITLE0=Hell Or Hallelujah
TTITLE1=Wall Of Sound
TTITLE2=Freak
TTITLE3=Back To The Stone Age
TTITLE4=Shout Mercy
TTITLE5=Long Way Down
TTITLE6=Eat Your Heart Out
TTITLE7=The Devil Is Me
TTITLE8=Outta This World
TTITLE9=All For The Love Of Rock and Roll
TTITLE10=Take Me Down Below
TTITLE11=Last Chance
EXTD=
EXTT0=
EXTT1=
EXTT2=
EXTT3=
EXTT4=
EXTT5=
EXTT6=
EXTT7=
EXTT8=
EXTT9=
EXTT10=
EXTT11=
PLAYORDER=
